<?xml version="1.0" standalone="no"?>
<!DOCTYPE svg PUBLIC "-//W3C//DTD SVG 20010904//EN"
 "http://www.w3.org/TR/2001/REC-SVG-20010904/DTD/svg10.dtd">
<svg version="1.0" xmlns="http://www.w3.org/2000/svg"
 width="263.000000pt" height="69.000000pt" viewBox="0 0 263.000000 69.000000"
 preserveAspectRatio="xMidYMid meet">

<g transform="translate(0.000000,69.000000) scale(0.100000,-0.100000)"
fill="#000000" stroke="none">
<path d="M1267 653 c-15 -15 -5 -23 28 -23 24 0 35 5 35 15 0 15 -50 22 -63 8z"/>
<path d="M100 500 l0 -110 40 0 40 0 0 63 0 62 47 -54 47 -54 48 54 47 54 1
-62 0 -63 35 0 35 0 0 110 0 110 -37 0 c-34 -1 -43 -7 -83 -56 l-45 -55 -48
56 c-43 49 -53 55 -88 55 l-39 0 0 -110z"/>
<path d="M470 585 l0 -25 155 0 155 0 0 25 0 25 -155 0 -155 0 0 -25z"/>
<path d="M822 594 c-20 -13 -22 -24 -22 -93 0 -110 1 -111 173 -111 l137 0 0
25 0 25 -108 0 c-121 0 -132 5 -132 60 0 55 11 60 132 60 l108 0 0 25 0 25
-133 0 c-104 0 -137 -3 -155 -16z"/>
<path d="M1197 500 l-66 -110 42 0 c31 0 45 5 55 20 10 16 23 20 72 20 49 0
61 -3 70 -20 8 -15 21 -20 50 -20 22 0 40 2 40 5 0 3 -27 53 -61 110 -61 104
-62 105 -99 105 -37 0 -38 -1 -103 -110z m117 4 c9 -23 8 -24 -14 -24 -19 0
-27 20 -13 33 11 11 20 8 27 -9z"/>
<path d="M1490 500 l0 -110 35 0 35 0 0 70 c0 39 3 70 6 70 3 0 40 -31 82 -70
66 -61 81 -70 114 -70 l38 0 0 110 0 110 -35 0 -35 0 0 -76 0 -76 -84 76 c-72
65 -88 76 -120 76 l-36 0 0 -110z"/>
<path d="M1820 500 l0 -110 35 0 35 0 0 110 0 110 -35 0 -35 0 0 -110z"/>
<path d="M1942 594 c-20 -13 -22 -24 -22 -93 0 -110 1 -111 173 -111 l137 0 0
25 0 25 -104 0 c-57 0 -111 3 -120 6 -19 7 -22 84 -4 102 8 8 49 12 120 12
l108 0 0 25 0 25 -133 0 c-104 0 -137 -3 -155 -16z"/>
<path d="M2316 503 l-65 -108 41 -3 c32 -3 43 1 55 17 12 17 25 21 73 21 49 0
61 -3 70 -20 8 -15 21 -20 51 -20 22 0 39 4 37 8 -1 4 -30 54 -62 110 -59 101
-60 102 -97 102 -37 0 -39 -2 -103 -107z m118 1 c9 -23 8 -24 -14 -24 -19 0
-27 20 -13 33 11 11 20 8 27 -9z"/>
<path d="M470 500 c0 -19 7 -20 155 -20 148 0 155 1 155 20 0 19 -7 20 -155
20 -148 0 -155 -1 -155 -20z"/>
<path d="M470 415 l0 -25 156 0 155 0 -3 23 c-3 22 -6 22 -155 25 l-153 3 0
-26z"/>
<path d="M542 208 c2 -50 6 -63 21 -66 12 -2 17 3 17 17 0 19 6 21 59 21 66 0
84 13 79 57 l-3 28 -88 3 -88 3 3 -63z m136 18 c3 -13 -6 -16 -47 -16 -36 0
-51 4 -51 13 0 21 6 23 52 21 31 -1 44 -6 46 -18z"/>
<path d="M796 209 c-20 -33 -36 -62 -36 -65 0 -11 39 -2 50 11 7 8 27 15 45
15 18 0 38 -7 45 -15 11 -13 50 -22 50 -11 0 3 -16 32 -36 65 -49 82 -69 82
-118 0z m69 1 c3 -5 -1 -10 -10 -10 -9 0 -13 5 -10 10 3 6 8 10 10 10 2 0 7
-4 10 -10z"/>
<path d="M990 215 c0 -65 12 -75 94 -75 70 0 86 15 86 81 0 42 -3 49 -19 49
-17 0 -20 -8 -23 -47 l-3 -48 -45 0 -45 0 -3 48 c-3 39 -6 47 -23 47 -16 0
-19 -7 -19 -55z"/>
<path d="M1202 208 l3 -63 88 -3 c72 -2 87 0 87 12 0 12 -16 16 -67 18 l-68 3
-3 48 c-3 39 -6 47 -23 47 -18 0 -20 -6 -17 -62z"/>
<path d="M1420 205 c0 -58 2 -65 20 -65 18 0 20 7 20 65 0 58 -2 65 -20 65
-18 0 -20 -7 -20 -65z"/>
<path d="M1499 254 c-23 -28 1 -48 66 -54 34 -3 60 -10 63 -17 3 -10 -15 -13
-68 -13 -53 0 -71 -3 -68 -12 6 -17 130 -23 158 -8 24 13 27 55 4 64 -9 3 -38
6 -64 6 -75 0 -73 20 2 21 35 1 66 1 71 0 4 0 7 6 7 14 0 22 -152 22 -171 -1z"/>
<path d="M1710 257 c0 -9 12 -13 33 -13 32 1 32 1 35 -52 3 -44 6 -53 20 -50
13 2 18 15 20 51 3 38 7 47 23 48 38 3 42 4 47 17 3 9 -19 12 -87 12 -69 0
-91 -3 -91 -13z"/>
<path d="M1977 233 c-29 -46 -47 -80 -47 -87 0 -13 41 -5 46 9 8 20 80 20 88
0 5 -14 46 -22 46 -9 0 4 -15 33 -32 65 -40 73 -66 78 -101 22z m53 -23 c0 -5
-4 -10 -10 -10 -5 0 -10 5 -10 10 0 6 5 10 10 10 6 0 10 -4 10 -10z"/>
<path d="M377 213 c-14 -13 -6 -33 13 -33 11 0 20 4 20 9 0 13 -26 32 -33 24z"/>
<path d="M2231 206 c-9 -10 -8 -16 3 -25 10 -9 16 -8 25 3 9 10 8 16 -3 25
-10 9 -16 8 -25 -3z"/>
</g>
</svg>
