<?xml version="1.0" standalone="no"?>
<!DOCTYPE svg PUBLIC "-//W3C//DTD SVG 20010904//EN"
 "http://www.w3.org/TR/2001/REC-SVG-20010904/DTD/svg10.dtd">
<svg version="1.0" xmlns="http://www.w3.org/2000/svg"
 width="280.000000pt" height="160.000000pt" viewBox="0 0 280.000000 160.000000"
 preserveAspectRatio="xMidYMid meet">

<g transform="translate(0.000000,160.000000) scale(0.100000,-0.100000)"
fill="#000000" stroke="none">
<path d="M1205 1567 c-28 -7 -56 -17 -63 -21 -9 -5 -12 -75 -12 -272 l0 -265
-61 48 c-77 60 -85 73 -98 153 -17 103 -72 139 -190 119 -31 -5 -57 -9 -58 -9
-2 0 -3 -4 -3 -10 0 -5 28 -24 63 -41 34 -17 65 -36 68 -42 9 -14 -7 -66 -27
-88 -23 -25 -45 -24 -105 6 -46 24 -69 26 -69 6 0 -20 65 -103 96 -122 30 -18
43 -20 103 -14 71 7 111 -4 140 -39 12 -14 -5 -16 -171 -16 -166 0 -187 -2
-201 -18 -24 -27 -25 -356 -1 -390 15 -22 18 -22 256 -22 217 0 239 -2 227
-16 -25 -30 -68 -44 -138 -44 -65 0 -73 -3 -106 -32 -41 -35 -80 -104 -65
-113 5 -3 32 6 61 20 76 39 125 17 117 -53 -2 -22 -14 -32 -61 -55 -49 -23
-57 -30 -47 -42 15 -18 88 -29 129 -20 48 10 89 57 97 113 3 26 13 59 20 74
15 29 174 168 193 168 18 0 13 -52 -8 -86 -11 -17 -39 -42 -63 -55 l-43 -24
-3 -135 c-3 -158 5 -184 53 -177 21 3 44 -4 75 -22 63 -36 147 -36 210 0 31
18 54 25 75 22 48 -7 56 19 53 176 l-3 135 -56 33 c-44 25 -60 41 -73 73 -16
40 -14 60 4 60 4 0 45 -30 90 -67 83 -68 120 -120 120 -170 0 -61 66 -123 132
-123 40 0 99 21 96 33 -2 7 -25 22 -51 35 -62 29 -74 53 -50 95 25 41 50 44
113 12 29 -15 54 -24 57 -21 13 12 -11 60 -50 101 l-44 45 -77 0 c-63 0 -84 4
-108 21 -16 12 -32 19 -35 16 -2 -3 15 -18 39 -33 23 -15 46 -31 49 -37 4 -6
16 -3 30 7 43 30 106 13 148 -40 27 -34 18 -48 -19 -29 -43 22 -69 18 -101
-16 -24 -26 -29 -40 -27 -71 2 -32 7 -42 30 -54 41 -21 36 -38 -9 -29 -54 9
-84 43 -90 99 -4 31 -2 46 6 46 6 0 11 5 11 12 0 7 15 27 33 46 30 33 31 34 5
17 -16 -9 -28 -21 -28 -26 0 -5 -9 -9 -19 -9 -25 0 -51 36 -51 71 0 16 -9 33
-22 43 -15 10 -17 14 -5 10 9 -4 17 -1 17 5 0 8 71 11 239 11 237 0 240 0 255
22 13 18 16 55 16 193 0 138 -3 175 -16 193 -15 21 -20 22 -200 22 -101 0
-184 3 -184 8 0 4 16 17 36 30 32 21 43 23 113 16 l78 -6 41 37 c53 47 88 103
74 117 -6 6 -27 1 -62 -17 -64 -32 -88 -30 -118 15 -35 53 -27 70 51 107 37
18 67 37 67 42 0 24 -139 32 -189 11 -40 -16 -57 -48 -66 -124 -7 -53 -12 -64
-54 -103 -25 -25 -45 -48 -44 -53 1 -4 -10 -18 -25 -31 l-27 -24 24 28 c27 29
19 37 -11 10 -17 -16 -18 -10 -19 163 0 98 -1 219 -2 269 l-2 90 -40 14 c-56
20 -372 25 -440 8z m335 -12 c7 -8 10 -24 7 -34 -3 -14 1 -21 17 -25 11 -3 -8
-3 -43 0 -35 2 -81 4 -102 4 -37 0 -39 2 -39 30 0 26 -4 30 -26 30 -24 0 -26
-3 -22 -33 l4 -34 -51 0 c-31 0 -38 1 -17 4 17 2 32 7 32 11 0 4 3 17 6 29 4
15 1 22 -13 26 -10 3 39 5 108 6 101 1 129 -2 139 -14z m-287 -2 c-7 -2 -21
-2 -30 0 -10 3 -4 5 12 5 17 0 24 -2 18 -5z m409 -14 c24 -13 22 -77 -2 -70
-8 2 -27 6 -42 9 -24 4 -28 9 -28 37 0 23 -5 35 -17 39 -10 3 2 3 26 0 24 -2
52 -9 63 -15z m-462 -19 c0 -21 5 -30 18 -31 9 -1 4 -5 -13 -9 -57 -15 -65
-12 -65 19 0 17 4 32 8 35 5 3 6 -8 4 -25 -3 -22 0 -29 13 -29 14 0 16 7 13
35 -3 24 0 35 9 35 8 0 13 -12 13 -30z m412 -70 c81 -21 94 -65 15 -46 -28 6
-43 15 -40 22 6 16 -14 27 -35 19 -14 -5 -14 -7 -2 -16 10 -7 -12 -8 -70 -3
-92 7 -104 10 -94 25 4 7 -5 9 -22 7 -20 -2 -29 -8 -28 -20 2 -15 -6 -18 -40
-17 -22 0 -34 3 -26 6 8 2 22 7 30 10 12 4 12 7 -4 19 -17 12 -2 14 125 10 79
-2 165 -9 191 -16z m-349 3 c-7 -2 -19 -2 -25 0 -7 3 -2 5 12 5 14 0 19 -2 13
-5z m-59 -18 c-4 -11 1 -15 17 -16 17 -1 14 -3 -11 -9 -19 -4 -43 -11 -52 -15
-28 -11 -23 30 5 43 32 15 47 14 41 -3z m336 -46 c47 -5 96 -16 109 -22 24
-12 39 -47 20 -47 -5 0 -9 9 -9 20 0 11 -5 20 -11 20 -6 0 -8 -7 -5 -16 5 -12
2 -15 -10 -10 -8 3 -28 6 -42 6 -19 0 -23 3 -13 9 7 5 10 14 7 20 -11 16 -46
13 -46 -4 0 -13 -21 -15 -132 -15 -118 0 -130 2 -112 15 18 13 16 14 -21 16
l-40 2 45 7 c71 11 169 11 260 -1z m-336 -24 c-5 -11 1 -15 22 -16 27 -1 27
-2 -6 -8 -19 -4 -46 -11 -58 -15 -20 -7 -23 -5 -20 10 2 10 14 24 28 31 33 17
41 16 34 -2z m391 -56 c33 -6 66 -16 73 -22 9 -7 12 -46 11 -149 -1 -145 -6
-160 -44 -118 -73 80 -350 83 -443 5 -17 -14 -35 -25 -41 -25 -16 0 -15 274 2
288 6 5 26 12 42 14 17 3 24 3 18 1 -10 -3 -13 -38 -13 -128 l0 -123 50 16
c46 14 50 19 50 46 0 17 3 68 6 113 l7 82 -34 4 c-22 2 -15 4 21 5 30 0 49 -2
43 -5 -7 -2 -13 -19 -13 -36 l1 -32 30 34 c18 19 27 36 21 40 -16 9 146 2 213
-10z m-691 0 c33 -15 60 -88 52 -140 -3 -21 -3 -39 2 -39 4 0 32 -23 62 -52
30 -28 39 -40 20 -25 -33 25 -35 25 -62 9 -25 -15 -28 -15 -48 3 -19 17 -19
19 -4 37 10 10 15 18 12 18 -2 0 -15 -12 -29 -27 -13 -14 -18 -23 -10 -18 10
5 12 4 7 -4 -4 -6 -11 -9 -15 -6 -5 2 -22 -2 -39 -11 -39 -19 -72 -11 -108 27
l-27 29 45 -2 c52 -3 75 12 95 59 22 54 17 82 -18 101 -17 9 -41 25 -53 34
-20 17 -20 17 36 18 31 0 68 -5 82 -11z m1136 2 c0 -5 -19 -20 -42 -33 -33
-18 -44 -30 -46 -52 -8 -67 47 -131 105 -120 39 7 42 -4 11 -33 -34 -31 -64
-37 -99 -19 -17 9 -35 13 -40 11 -4 -3 -11 0 -15 6 -5 8 -3 9 7 4 8 -4 -2 9
-21 31 -19 21 -37 40 -40 41 -9 5 2 103 11 103 5 0 8 3 8 8 -4 21 4 33 29 46
30 17 132 22 132 7z m-154 -206 c13 -20 14 -28 4 -40 -16 -19 -39 -19 -60 0
-15 14 -20 13 -46 -7 -18 -13 -12 -4 16 25 24 26 50 47 57 47 7 0 20 -11 29
-25z m-826 -90 c27 -22 49 -43 50 -47 0 -12 -58 -9 -65 2 -4 6 -10 8 -15 5 -5
-3 -12 0 -16 6 -5 8 -3 9 7 4 12 -8 12 -6 0 8 -16 20 -36 23 -25 5 4 -7 3 -9
-1 -5 -20 17 -15 72 6 65 6 -2 33 -21 59 -43z m776 30 c4 -8 -6 -26 -23 -41
-15 -15 -19 -21 -8 -13 17 11 18 11 7 -1 -7 -8 -16 -15 -20 -16 -4 0 -19 -4
-34 -8 -61 -18 -62 -2 -3 47 62 51 73 55 81 32z m-489 -57 c-2 -13 -4 -3 -4
22 0 25 2 35 4 23 2 -13 2 -33 0 -45z m143 17 c0 -25 -4 -45 -10 -45 -5 0 -10
20 -10 45 0 25 5 45 10 45 6 0 10 -20 10 -45z m-92 -26 c27 0 27 0 4 -10 -33
-13 -42 -4 -40 39 l1 37 4 -32 c4 -28 8 -33 31 -34z m-288 26 c13 -14 21 -25
18 -25 -2 0 -15 11 -28 25 -13 14 -21 25 -18 25 2 0 15 -11 28 -25z m200 -10
l0 -35 -64 0 c-36 0 -67 4 -70 8 -8 13 50 39 132 61 1 1 2 -15 2 -34z m315 -8
c39 -20 19 -29 -61 -25 -47 2 -59 7 -62 21 -8 40 4 47 50 33 24 -7 57 -20 73
-29z m557 -54 c16 -14 18 -34 18 -188 0 -120 -4 -175 -12 -183 -17 -17 -1539
-17 -1556 0 -8 8 -12 64 -12 184 0 144 3 175 16 188 14 14 97 16 771 16 690 0
758 -1 775 -17z m-997 -450 c-30 -28 -37 -37 -18 -24 18 12 35 26 38 31 3 6
16 15 28 21 27 14 24 11 -37 -39 -39 -33 -53 -39 -68 -31 -22 12 -23 27 -1 51
9 10 12 18 7 18 -18 0 -34 -24 -34 -50 0 -33 -26 -70 -49 -70 -10 0 -25 8 -35
19 -19 21 -20 20 62 75 29 19 59 33 66 30 8 -3 17 -1 21 5 3 6 21 11 38 11
l32 -1 -50 -46z m242 11 c-3 -20 -8 -39 -11 -41 -9 -9 -45 17 -51 38 -8 25 8
39 44 39 22 0 23 -3 18 -36z m63 16 c0 -32 26 -75 62 -104 18 -14 39 -31 46
-37 6 -5 12 -7 12 -3 0 3 7 1 15 -6 12 -10 15 -29 14 -72 -2 -49 -5 -58 -21
-58 -13 0 -18 7 -18 27 0 48 -45 109 -102 137 -28 14 -64 26 -79 26 -38 0 -68
29 -74 70 -5 35 -5 35 5 5 11 -34 35 -55 62 -55 26 0 58 36 58 65 0 14 5 25
10 25 6 0 10 -9 10 -20z m100 9 c0 22 55 10 90 -19 l35 -29 -21 -21 -21 -21
-56 47 c-31 25 -57 49 -57 51 0 3 7 0 15 -7 10 -9 15 -9 15 -1z m-275 -78 c-8
-17 -24 -37 -35 -44 -18 -11 -28 -37 -14 -37 3 0 19 11 36 25 16 14 35 25 41
25 7 0 3 -6 -8 -12 -28 -15 -75 -60 -75 -71 0 -5 15 4 33 19 119 100 271 53
293 -91 8 -56 -22 -124 -73 -162 -50 -38 -133 -43 -187 -11 -55 32 -89 98 -83
158 3 25 9 54 13 64 6 15 4 17 -6 11 -9 -6 -11 -4 -5 5 4 7 8 25 7 41 0 19 7
33 23 43 13 9 29 32 37 51 7 20 14 32 16 26 2 -5 -4 -23 -13 -40z m-335 9 c8
-5 15 -13 15 -18 0 -5 15 -27 33 -48 30 -35 33 -44 27 -79 -9 -57 -29 -82 -75
-96 -52 -16 -62 -4 -24 26 42 33 43 74 3 120 -34 38 -58 43 -103 20 -35 -18
-36 -18 -36 -1 0 18 59 78 70 71 5 -3 11 -1 15 5 8 13 55 13 75 0z m253 -118
c0 -26 -1 -59 -2 -74 -1 -21 -6 -28 -21 -28 -18 0 -20 7 -20 59 0 51 3 62 22
75 12 9 23 16 23 16 0 0 -1 -21 -2 -48z m-4 -134 c4 -13 6 -43 3 -67 -3 -34
-1 -42 9 -39 8 3 12 14 11 24 -3 15 3 13 30 -12 18 -17 42 -37 53 -43 19 -11
18 -12 -4 -5 -17 4 -21 3 -16 -6 9 -15 -9 -6 -35 16 -8 7 -31 14 -50 16 -35 3
-35 3 -38 57 -2 29 -1 60 2 67 8 21 26 17 35 -8z m406 -49 l0 -64 -35 -3 c-19
-2 -42 -9 -50 -17 -26 -22 -78 -45 -103 -45 -43 0 -38 13 12 30 27 9 59 23 73
32 22 15 59 76 72 121 4 10 12 17 19 14 8 -2 12 -25 12 -68z m-398 -85 c-3 -3
-12 -4 -19 -1 -8 3 -5 6 6 6 11 1 17 -2 13 -5z m380 0 c-3 -3 -12 -4 -19 -1
-8 3 -5 6 6 6 11 1 17 -2 13 -5z m-252 -34 c13 -6 15 -9 5 -9 -8 0 -22 4 -30
9 -18 12 -2 12 25 0z"/>
<path d="M1640 1511 c0 -17 5 -31 10 -31 6 0 10 11 10 24 0 14 -4 28 -10 31
-6 4 -10 -7 -10 -24z"/>
<path d="M1640 1420 c0 -5 5 -10 10 -10 6 0 10 5 10 10 0 6 -4 10 -10 10 -5 0
-10 -4 -10 -10z"/>
<path d="M1155 1420 c-3 -5 1 -10 9 -10 9 0 16 5 16 10 0 6 -4 10 -9 10 -6 0
-13 -4 -16 -10z"/>
<path d="M1343 1383 c-23 -9 -14 -23 15 -23 19 0 29 5 29 15 0 15 -20 18 -44
8z"/>
<path d="M1155 1350 c-3 -5 1 -10 9 -10 9 0 16 5 16 10 0 6 -4 10 -9 10 -6 0
-13 -4 -16 -10z"/>
<path d="M1545 1195 c0 -107 1 -115 21 -124 19 -8 23 -6 27 19 9 42 -4 204
-17 212 -27 18 -31 4 -31 -107z"/>
<path d="M1157 1283 c-15 -15 -1 -277 14 -267 11 7 12 274 1 274 -5 0 -12 -3
-15 -7z"/>
<path d="M1380 1276 c-14 -7 -24 -18 -22 -24 1 -7 -4 -11 -10 -9 -9 1 -14 -20
-15 -75 l-3 -78 31 0 c32 0 32 7 -3 46 -23 26 -11 38 17 18 14 -10 15 -14 4
-15 -8 0 -4 -4 9 -9 28 -12 61 0 87 32 22 25 32 83 13 72 -8 -5 -9 -1 -4 12 4
10 4 15 0 11 -4 -4 -14 -1 -23 7 -26 22 -54 27 -81 12z"/>
<path d="M1640 1156 c0 -79 4 -137 10 -141 6 -4 10 43 10 134 0 87 -4 141 -10
141 -6 0 -10 -51 -10 -134z"/>
<path d="M634 917 c-2 -7 -3 -89 -2 -182 l3 -170 772 -3 773 -2 5 22 c3 13 4
95 3 183 l-3 160 -773 3 c-624 2 -774 0 -778 -11z m56 -17 c0 -5 -2 -10 -4
-10 -3 0 -8 5 -11 10 -3 6 -1 10 4 10 6 0 11 -4 11 -10z m350 -9 c0 -4 -10 -6
-23 -4 -14 3 -29 -2 -36 -11 -19 -22 4 -49 36 -43 13 2 23 0 23 -4 0 -13 -54
-11 -68 3 -15 15 -15 41 0 56 14 14 68 16 68 3z m90 -31 c11 -22 16 -40 10
-40 -5 0 -10 5 -10 10 0 6 -11 10 -25 10 -14 0 -25 -4 -25 -10 0 -5 -5 -10
-10 -10 -6 0 -1 18 10 40 11 22 22 40 25 40 3 0 14 -18 25 -40z m91 28 c1 -7
1 -19 0 -26 -1 -8 3 -20 10 -28 8 -10 8 -14 0 -14 -6 0 -14 7 -17 15 -4 8 -10
15 -15 15 -5 0 -9 -7 -9 -15 0 -8 -4 -15 -10 -15 -5 0 -10 18 -10 40 0 36 3
40 25 40 14 0 26 -6 26 -12z m139 2 c0 -5 -7 -7 -15 -4 -8 4 -15 1 -15 -5 0
-7 7 -14 15 -17 8 -4 15 -15 15 -25 0 -14 -7 -19 -25 -19 -14 0 -25 4 -25 9 0
5 9 7 20 4 26 -7 25 4 -2 26 -12 10 -18 23 -14 29 9 14 46 16 46 2z m63 3
c-28 -5 -30 -23 -3 -23 11 0 20 -4 20 -10 0 -5 -9 -10 -20 -10 -27 0 -25 -18
3 -23 19 -4 18 -4 -5 -6 -26 -1 -28 2 -28 39 0 37 2 40 28 39 23 -2 24 -2 5
-6z m92 -20 c0 -12 4 -25 8 -29 16 -16 6 -26 -11 -11 -23 21 -29 21 -35 0 -3
-10 -5 1 -6 25 -1 40 1 43 22 40 15 -2 22 -10 22 -25z m55 0 l13 -28 11 28 c5
15 14 27 18 27 7 0 -16 -67 -27 -78 -2 -2 -13 14 -25 37 -11 23 -17 41 -12 41
5 0 15 -12 22 -27z m90 -13 c0 -22 -4 -40 -10 -40 -5 0 -10 18 -10 40 0 22 5
40 10 40 6 0 10 -18 10 -40z m105 30 c4 -7 -2 -9 -17 -5 -16 4 -29 1 -37 -9
-20 -23 -6 -44 31 -49 28 -4 27 -4 -7 -3 -34 1 -41 5 -43 24 -2 13 2 30 8 38
14 16 56 19 65 4z m68 3 c-26 -5 -31 -23 -8 -23 8 0 15 -4 15 -10 0 -5 -7 -10
-15 -10 -23 0 -18 -18 8 -23 19 -4 18 -4 -5 -6 -26 -1 -28 2 -28 39 0 37 2 40
28 39 23 -2 24 -2 5 -6z m-909 -123 c14 -5 26 -16 26 -25 0 -12 -9 -13 -44 -9
-56 8 -86 -8 -86 -45 0 -29 11 -43 41 -54 20 -7 50 12 32 20 -28 11 -13 33 22
33 33 0 35 -2 35 -35 0 -41 -20 -55 -80 -55 -102 0 -138 126 -47 165 38 17 67
18 101 5z m865 4 c21 -5 31 -12 31 -25 0 -16 -6 -18 -44 -13 -36 5 -47 3 -65
-15 -11 -11 -21 -27 -21 -34 0 -19 22 -44 45 -51 23 -6 58 12 38 21 -28 11
-13 33 22 33 33 0 35 -2 35 -35 0 -24 -6 -37 -19 -45 -45 -24 -140 -2 -155 35
-19 50 1 100 47 120 37 16 44 17 86 9z m-639 -76 c18 -40 35 -79 37 -85 3 -9
-4 -13 -21 -13 -16 0 -26 6 -26 15 0 11 -12 15 -44 15 -30 0 -46 -5 -50 -15
-5 -15 -46 -22 -46 -7 0 4 14 42 31 85 28 70 34 77 59 77 24 0 31 -8 60 -72z
m214 50 c14 -20 14 -25 1 -45 -14 -20 -13 -26 5 -55 25 -42 25 -48 -3 -48 -17
0 -28 10 -40 35 -9 19 -23 35 -32 35 -10 0 -15 -10 -15 -35 0 -28 -4 -35 -20
-35 -18 0 -20 7 -20 85 l0 85 54 0 c45 0 58 -4 70 -22z m217 -60 c35 -79 35
-83 16 -86 -11 -2 -24 3 -29 12 -12 21 -86 22 -94 1 -4 -8 -17 -15 -30 -15
l-24 0 20 50 c47 120 47 120 77 120 26 0 32 -7 64 -82z m439 67 c0 -11 -11
-15 -43 -15 -32 0 -44 -4 -44 -15 0 -11 11 -15 39 -15 31 0 38 -3 38 -20 0
-17 -7 -20 -39 -20 -32 0 -39 -3 -37 -17 2 -13 14 -19 44 -21 29 -2 42 -8 42
-18 0 -11 -15 -14 -65 -14 l-65 0 0 85 0 85 65 0 c51 0 65 -3 65 -15z m-1330
-145 c0 -5 -2 -10 -4 -10 -3 0 -8 5 -11 10 -3 6 -1 10 4 10 6 0 11 -4 11 -10z"/>
<path d="M1101 864 c0 -11 3 -14 6 -6 3 7 2 16 -1 19 -3 4 -6 -2 -5 -13z"/>
<path d="M1190 880 c0 -5 5 -10 10 -10 6 0 10 5 10 10 0 6 -4 10 -10 10 -5 0
-10 -4 -10 -10z"/>
<path d="M1480 880 c0 -5 7 -10 16 -10 8 0 12 5 9 10 -3 6 -10 10 -16 10 -5 0
-9 -4 -9 -10z"/>
<path d="M1080 711 c0 -5 -3 -16 -6 -25 -5 -12 0 -16 20 -16 24 0 25 2 14 25
-11 24 -28 34 -28 16z"/>
<path d="M1282 723 c4 -22 43 -25 43 -3 0 8 -11 16 -23 18 -19 3 -23 0 -20
-15z"/>
<path d="M1502 696 c-11 -24 -10 -26 13 -26 28 0 31 8 12 34 -12 17 -14 16
-25 -8z"/>
<path d="M1611 343 c1 -10 5 -29 9 -43 7 -22 8 -21 9 12 1 20 -3 40 -9 43 -5
3 -10 -2 -9 -12z"/>
<path d="M1630 475 c23 -19 44 -35 48 -35 9 0 -72 69 -81 70 -5 0 10 -16 33
-35z"/>
<path d="M1365 375 c-107 -38 -140 -172 -61 -251 100 -100 266 -33 266 107 0
104 -106 179 -205 144z m131 -69 c46 -46 48 -100 4 -149 -35 -41 -79 -52 -123
-33 -52 22 -72 51 -72 108 0 43 4 53 33 79 26 23 42 29 78 29 39 0 51 -5 80
-34z"/>
<path d="M1207 353 c-11 -10 -8 -113 3 -113 6 0 10 27 10 60 0 61 -1 65 -13
53z"/>
<path d="M1200 145 c0 -30 5 -55 10 -55 6 0 10 25 10 55 0 30 -4 55 -10 55 -5
0 -10 -25 -10 -55z"/>
<path d="M1280 75 c7 -8 17 -15 22 -15 6 0 5 7 -2 15 -7 8 -17 15 -22 15 -6 0
-5 -7 2 -15z"/>
<path d="M1619 150 c-5 -55 -4 -68 7 -58 3 3 4 30 2 59 l-3 54 -6 -55z"/>
<path d="M1490 50 c-9 -6 -10 -10 -3 -10 6 0 15 5 18 10 8 12 4 12 -15 0z"/>
</g>
</svg>
