<?xml version="1.0" standalone="no"?>
<!DOCTYPE svg PUBLIC "-//W3C//DTD SVG 20010904//EN"
 "http://www.w3.org/TR/2001/REC-SVG-20010904/DTD/svg10.dtd">
<svg version="1.0" xmlns="http://www.w3.org/2000/svg"
 width="1024.000000pt" height="1024.000000pt" viewBox="0 0 1024.000000 1024.000000"
 preserveAspectRatio="xMidYMid meet">

<g transform="translate(0.000000,1024.000000) scale(0.100000,-0.100000)"
fill="#000000" stroke="none">
<path d="M3105 7035 c-106 -31 -240 -86 -345 -141 -123 -64 -116 -57 -93 -90
89 -127 130 -313 99 -448 -32 -135 -108 -230 -234 -289 -64 -31 -72 -32 -187
-32 -136 1 -195 17 -305 81 -52 30 -64 34 -75 23 -7 -8 -36 -60 -64 -115 -89
-177 -173 -421 -148 -429 7 -2 35 -8 62 -15 109 -25 250 -110 313 -189 18 -23
48 -72 65 -109 29 -61 32 -76 32 -162 0 -86 -3 -101 -32 -162 -17 -37 -47 -86
-65 -109 -63 -79 -204 -164 -313 -189 -27 -7 -55 -13 -62 -15 -25 -8 59 -252
148 -429 28 -55 57 -107 64 -115 11 -11 23 -7 75 23 110 64 169 80 305 81 115
0 123 -1 187 -32 126 -59 202 -154 234 -289 31 -135 -10 -321 -99 -448 -24
-34 -33 -27 138 -111 119 -58 294 -124 371 -140 30 -6 32 -4 39 32 21 116 113
276 198 344 261 210 602 81 721 -273 14 -42 26 -84 26 -92 0 -9 6 -16 13 -16
14 0 134 38 222 70 49 18 311 144 324 155 2 2 -6 16 -17 32 -83 118 -125 294
-102 423 26 144 107 251 238 313 64 31 72 32 187 32 135 -1 201 -18 309 -81
70 -42 66 -44 126 74 30 58 48 83 63 86 12 3 623 39 1357 81 734 41 1349 77
1365 79 17 1 -796 3 -1805 4 l-1835 2 -30 -41 c-43 -59 -172 -179 -242 -227
-449 -305 -1040 -259 -1430 111 -360 342 -458 876 -244 1321 304 630 1092 839
1674 444 70 -48 199 -168 242 -227 l30 -41 1835 2 c1009 1 1822 3 1805 4 -16
2 -631 38 -1365 79 -734 42 -1345 78 -1357 81 -15 3 -33 28 -63 86 -60 118
-56 116 -126 74 -168 -98 -370 -113 -518 -39 -189 95 -270 326 -194 557 22 67
50 126 80 168 l19 28 -33 20 c-76 48 -261 131 -375 169 -136 45 -153 48 -153
25 0 -8 -12 -50 -26 -92 -119 -354 -460 -483 -721 -273 -85 68 -177 228 -198
344 -4 20 -12 37 -19 36 -6 0 -47 -11 -91 -24z"/>
<path d="M3559 6130 c-333 -39 -635 -254 -789 -560 -50 -100 -71 -168 -64
-208 5 -23 3 -33 -4 -28 -5 3 -15 -7 -21 -24 -8 -24 -7 -30 5 -30 7 0 14 -4
14 -10 0 -5 -4 -10 -9 -10 -5 0 -11 -13 -13 -30 -3 -16 -1 -30 3 -30 4 0 9 12
11 28 2 15 3 -12 3 -60 0 -47 -1 -85 -2 -84 -2 1 -7 20 -12 42 -9 36 -10 34
-8 -28 2 -49 5 -64 14 -56 8 6 10 3 6 -11 -3 -12 -10 -21 -15 -21 -30 0 32
-231 94 -355 103 -204 278 -372 489 -469 272 -125 606 -119 874 15 l79 40 32
-38 c24 -28 34 -34 38 -23 6 19 56 270 56 284 0 8 -31 9 -102 5 -57 -4 -127
-7 -156 -8 l-54 -1 32 -40 32 -40 -55 -24 c-132 -59 -192 -71 -352 -71 -166 0
-221 11 -352 70 -216 98 -380 287 -452 519 -11 37 -21 79 -21 92 0 14 -7 27
-15 30 -15 6 -22 74 -7 74 13 0 8 123 -5 127 -7 3 -13 20 -13 40 0 30 3 34 20
28 22 -7 22 -6 25 73 1 25 8 48 16 53 8 5 10 9 4 9 -6 0 -5 4 1 8 6 4 26 36
44 72 109 216 284 366 515 440 99 31 302 39 408 16 139 -31 232 -75 353 -167
l66 -50 116 3 115 3 -51 62 c-60 72 -189 175 -283 227 -178 97 -402 140 -610
116z m-734 -800 c-4 -12 -9 -19 -12 -17 -3 3 -2 15 2 27 4 12 9 19 12 17 3 -3
2 -15 -2 -27z m-18 -97 c-2 -16 -4 -5 -4 22 0 28 2 40 4 28 2 -13 2 -35 0 -50z
m3 -200 c-11 -17 -11 -17 -6 0 3 10 7 26 7 35 1 15 2 15 6 0 2 -10 -1 -25 -7
-35z"/>
<path d="M3330 5410 c-18 -5 -39 -16 -46 -25 -33 -45 -28 -229 7 -261 30 -27
217 -38 316 -18 35 7 53 32 53 75 l0 39 -45 0 c-33 0 -45 -4 -45 -15 0 -8 -9
-19 -19 -25 -21 -11 -161 -7 -180 4 -6 4 -11 34 -11 66 0 81 11 90 112 90 71
0 80 -2 85 -20 4 -17 14 -20 54 -20 48 0 49 1 49 31 0 43 -15 65 -51 78 -36
13 -226 13 -279 1z"/>
<path d="M3753 5409 c-49 -14 -57 -39 -55 -159 2 -97 4 -107 26 -126 30 -27
124 -36 260 -25 86 7 102 11 118 31 19 24 20 31 19 152 0 93 -10 114 -59 128
-45 12 -265 12 -309 -1z m261 -85 c21 -20 22 -117 2 -133 -19 -16 -193 -16
-212 0 -15 12 -19 105 -6 125 12 18 33 22 119 23 62 1 85 -3 97 -15z"/>
<path d="M6050 5412 c0 -8 107 -135 139 -166 28 -27 31 -36 31 -88 l0 -58 50
0 50 0 0 56 c0 56 1 58 73 143 100 118 98 111 29 111 l-59 0 -48 -61 -49 -60
-30 37 c-68 82 -68 82 -128 86 -32 3 -58 2 -58 0z"/>
<path d="M4160 5255 l0 -155 50 0 50 0 0 115 c0 63 3 115 8 115 4 0 33 -52 65
-115 l57 -115 40 0 40 0 57 115 c32 63 61 115 65 115 5 0 8 -52 8 -115 l0
-115 50 0 50 0 0 155 0 156 -91 -3 -91 -3 -42 -92 c-22 -51 -43 -93 -46 -93
-3 0 -24 42 -47 93 l-42 92 -90 3 -91 3 0 -156z"/>
<path d="M4740 5255 l0 -155 49 0 c46 0 48 1 45 26 -5 52 0 54 118 54 60 0
118 5 128 10 43 23 50 160 9 201 -17 17 -34 19 -184 19 l-165 0 0 -155z m255
75 c21 -8 26 -16 23 -38 l-3 -27 -90 0 -90 0 1 30 c1 17 2 33 3 38 1 11 125 9
156 -3z"/>
<path d="M5214 5323 c-26 -49 -62 -116 -80 -151 -19 -34 -34 -65 -34 -67 0 -3
24 -5 53 -5 48 0 55 3 65 25 11 24 14 25 117 25 103 0 106 -1 117 -25 10 -22
17 -25 65 -25 29 0 53 3 53 6 0 4 -35 73 -77 155 l-78 149 -77 0 -77 0 -47
-87z m159 -38 c15 -31 27 -58 27 -60 0 -3 -29 -5 -65 -5 -36 0 -65 2 -65 5 0
16 56 115 65 115 6 0 23 -25 38 -55z"/>
<path d="M5590 5255 l0 -155 50 0 49 0 3 117 3 117 83 -117 82 -117 85 0 85 0
0 155 0 155 -50 0 -49 0 -3 -117 -3 -118 -80 115 -80 115 -88 3 -87 3 0 -156z"/>
<path d="M6620 5255 l0 -155 49 0 50 0 0 111 c0 61 2 113 4 116 3 2 27 -26 53
-64 26 -37 63 -89 82 -115 l34 -48 84 0 84 0 0 155 0 155 -50 0 -50 0 0 -117
-1 -118 -24 30 c-14 17 -51 69 -82 117 l-58 88 -87 0 -88 0 0 -155z"/>
<path d="M7218 5363 c-14 -27 -51 -96 -82 -155 l-58 -108 56 0 c50 0 58 3 68
25 11 24 14 25 118 25 104 0 107 -1 118 -25 10 -22 18 -25 68 -25 l56 0 -45
83 c-24 45 -61 115 -82 155 l-37 72 -78 0 -77 0 -25 -47z m142 -83 l30 -60
-71 0 c-39 0 -69 3 -67 8 22 49 60 112 68 112 5 0 23 -27 40 -60z"/>
<path d="M7570 5255 l0 -155 50 0 50 0 0 115 c0 63 3 115 8 115 4 0 33 -52 65
-115 l57 -115 40 0 40 0 57 115 c32 63 61 115 65 115 5 0 8 -52 8 -115 l0
-115 50 0 50 0 0 155 0 156 -91 -3 -91 -3 -42 -92 c-22 -51 -43 -93 -46 -93
-3 0 -25 43 -49 95 l-44 95 -88 0 -89 0 0 -155z"/>
<path d="M8150 5255 l0 -155 176 0 175 0 -3 38 -3 37 -128 3 c-126 3 -128 3
-125 25 3 22 6 22 121 19 l117 -4 0 36 0 36 -95 1 c-52 1 -99 3 -105 4 -5 1
-17 3 -25 4 -8 0 -15 10 -15 21 0 19 7 20 130 20 l130 0 0 35 0 35 -175 0
-175 0 0 -155z"/>
<path d="M3286 4948 c4 -7 20 -29 36 -49 15 -20 28 -49 28 -64 0 -37 32 -30
37 8 2 16 18 47 34 70 26 36 28 43 14 45 -10 2 -28 -10 -44 -28 l-26 -32 -23
31 c-22 30 -72 46 -56 19z"/>
<path d="M3620 4950 c-23 -14 -19 -109 5 -126 26 -20 119 -18 139 2 18 18 21
85 6 115 -9 16 -22 19 -73 19 -34 0 -69 -5 -77 -10z m120 -45 c10 -27 5 -51
-13 -58 -10 -3 -56 -2 -79 2 -13 2 -9 69 5 74 6 3 27 6 45 6 26 1 34 -4 42
-24z"/>
<path d="M3950 4901 c0 -76 14 -91 81 -91 79 0 89 9 89 85 0 51 -3 65 -15 65
-11 0 -15 -12 -15 -44 0 -66 -7 -76 -50 -76 -46 0 -55 11 -55 70 0 34 -4 46
-18 48 -15 3 -17 -5 -17 -57z"/>
<path d="M4290 4885 c0 -68 2 -75 20 -75 15 0 20 7 20 26 0 23 3 25 43 22 35
-2 43 -7 45 -25 2 -15 10 -23 22 -23 17 0 19 7 17 63 -2 34 -6 68 -10 75 -6 8
-34 12 -83 12 l-74 0 0 -75z m130 20 c0 -11 -12 -15 -45 -15 -33 0 -45 4 -45
15 0 11 12 15 45 15 33 0 45 -4 45 -15z"/>
<path d="M4890 4945 c0 -10 10 -15 30 -15 l30 0 0 -60 c0 -47 3 -60 15 -60 12
0 15 13 15 60 l0 60 35 0 c24 0 35 5 35 15 0 12 -16 15 -80 15 -64 0 -80 -3
-80 -15z"/>
<path d="M5207 4891 c-20 -37 -37 -71 -37 -75 0 -15 40 -4 50 14 8 15 21 20
55 20 35 0 45 -4 50 -20 7 -21 45 -28 45 -9 0 6 -16 40 -36 75 -30 54 -40 64
-63 64 -23 0 -32 -10 -64 -69z m71 -9 c-27 -5 -32 2 -18 29 l13 22 13 -24 c11
-22 11 -24 -8 -27z"/>
<path d="M5542 4948 c-7 -7 -12 -36 -12 -65 0 -62 13 -73 87 -73 68 0 88 18
84 73 -1 13 -10 17 -47 17 -50 0 -59 -22 -11 -28 35 -4 34 -19 -1 -27 -42 -9
-82 10 -82 38 0 13 5 28 12 35 15 15 84 16 93 2 3 -5 13 -10 21 -10 19 0 18
36 -2 44 -28 11 -130 6 -142 -6z"/>
<path d="M5880 4885 l0 -75 60 0 c47 0 60 3 60 15 0 11 -12 15 -45 15 l-45 0
0 60 c0 47 -3 60 -15 60 -12 0 -15 -15 -15 -75z"/>
<path d="M6180 4884 c0 -66 2 -75 18 -72 14 3 18 16 20 76 3 67 1 72 -18 72
-18 0 -20 -6 -20 -76z"/>
<path d="M6400 4885 c0 -60 3 -75 15 -75 12 0 15 13 15 57 l0 57 51 -57 c28
-32 59 -57 70 -57 17 0 19 8 19 75 0 67 -2 75 -19 75 -16 0 -18 -6 -16 -45 2
-25 1 -45 -2 -45 -3 0 -23 20 -45 45 -26 30 -48 45 -64 45 -23 0 -24 -2 -24
-75z"/>
<path d="M6750 4885 l0 -75 75 0 c59 0 75 3 75 15 0 10 -15 15 -57 17 -44 2
-58 7 -58 18 0 11 9 14 37 12 21 -2 47 -1 58 3 38 12 20 25 -35 25 -42 0 -55
3 -55 15 0 12 13 15 55 15 42 0 55 3 55 15 0 12 -15 15 -75 15 l-75 0 0 -75z"/>
<path d="M7338 4928 c-2 -18 -1 -52 1 -75 4 -52 28 -59 33 -10 3 28 7 32 33
33 45 2 55 -5 55 -37 0 -22 5 -29 20 -29 18 0 20 7 20 75 0 68 -2 75 -20 75
-16 0 -20 -7 -20 -30 0 -29 -2 -30 -45 -30 -43 0 -45 1 -45 30 0 42 -28 40
-32 -2z"/>
<path d="M7670 4885 l0 -75 75 0 c60 0 75 3 75 15 0 12 -13 15 -55 15 -42 0
-55 3 -55 15 0 12 13 15 55 15 42 0 55 3 55 15 0 12 -13 15 -55 15 -42 0 -55
3 -55 15 0 12 13 15 55 15 42 0 55 3 55 15 0 12 -15 15 -75 15 l-75 0 0 -75z"/>
<path d="M8000 4885 c0 -58 3 -75 14 -75 8 0 16 10 18 23 3 19 9 22 43 22 32
0 42 -5 50 -22 5 -13 15 -23 22 -23 15 0 16 119 1 137 -7 8 -36 13 -79 13
l-69 0 0 -75z m120 20 c0 -11 -12 -15 -45 -15 -33 0 -45 4 -45 15 0 11 12 15
45 15 33 0 45 -4 45 -15z"/>
<path d="M8340 4885 l0 -75 75 0 c59 0 75 3 75 15 0 10 -15 15 -57 17 -78 4
-83 26 -7 30 79 4 84 26 8 30 -82 4 -86 28 -5 28 48 0 61 3 61 15 0 12 -15 15
-75 15 l-75 0 0 -75z"/>
</g>
</svg>
