<?xml version="1.0" standalone="no"?>
<!DOCTYPE svg PUBLIC "-//W3C//DTD SVG 20010904//EN"
 "http://www.w3.org/TR/2001/REC-SVG-20010904/DTD/svg10.dtd">
<svg version="1.0" xmlns="http://www.w3.org/2000/svg"
 width="225.000000pt" height="225.000000pt" viewBox="0 0 225.000000 225.000000"
 preserveAspectRatio="xMidYMid meet">

<g transform="translate(0.000000,225.000000) scale(0.100000,-0.100000)"
fill="#000000" stroke="none">
<path d="M678 2014 c-36 -11 -20 -41 32 -62 41 -17 50 -25 50 -45 0 -45 -24
-53 -86 -27 -88 36 -98 1 -25 -83 17 -19 42 -37 56 -40 31 -5 27 -1 -16 21
-18 10 -35 23 -37 31 -3 9 0 11 8 6 10 -6 12 -4 7 9 -7 17 1 17 49 -1 12 -4
45 37 57 70 4 10 2 27 -3 38 -13 23 -10 23 35 5 19 -8 37 -11 39 -7 6 8 -8 33
-18 31 -3 0 -14 4 -24 9 -9 6 -12 11 -5 11 6 0 15 -5 18 -10 4 -6 10 -8 15 -5
4 3 16 -7 25 -21 10 -15 12 -23 4 -19 -9 6 -11 3 -6 -9 6 -14 3 -17 -10 -12
-13 4 -12 1 4 -10 l21 -15 -20 -50 c-14 -33 -28 -51 -42 -54 -12 -2 -30 -6
-41 -9 -11 -2 6 -3 37 -3 32 1 52 5 45 9 -7 5 -2 8 14 8 15 0 37 -9 50 -21 23
-20 19 -20 -26 -3 -14 5 -17 4 -10 -3 6 -6 20 -14 32 -18 19 -5 26 0 40 29 9
20 21 36 27 37 29 3 69 -4 92 -16 24 -12 24 -14 8 -23 -27 -15 -4 -59 33 -64
24 -4 25 -5 10 -12 -12 -6 -33 -2 -60 10 -23 11 -44 19 -47 19 -3 0 -10 3 -16
7 -15 10 -24 -1 -24 -27 0 -32 18 -44 56 -38 28 5 40 -1 83 -36 55 -46 75 -50
132 -21 62 32 77 11 33 -47 -27 -35 -26 -56 1 -33 13 11 14 10 9 -4 -4 -10
-18 -16 -39 -16 -18 0 -52 -7 -75 -15 -41 -15 -68 -12 -42 4 8 5 6 12 -8 24
-11 9 -24 17 -30 17 -19 0 -87 45 -121 82 -72 75 -63 28 9 -54 13 -14 24 -29
23 -32 0 -3 2 -12 5 -20 3 -8 4 -31 2 -51 -3 -35 -6 -38 -63 -61 -33 -14 -116
-45 -185 -70 -233 -84 -259 -95 -289 -127 -31 -31 -40 -57 -20 -57 6 0 21 13
35 29 27 33 24 31 307 136 115 42 212 74 215 71 13 -14 -24 -30 -289 -125
-163 -58 -219 -84 -219 -102 0 -5 269 -9 625 -9 400 0 625 4 625 10 0 18 -47
41 -177 86 -210 74 -313 115 -313 125 0 15 14 11 197 -56 267 -98 283 -105
306 -136 22 -31 47 -38 47 -15 0 17 -46 64 -80 81 -14 7 -101 40 -195 73 -276
99 -269 96 -276 128 -5 24 -7 20 -8 -18 -2 -69 -44 -133 -66 -98 -14 23 -33 8
-38 -31 -10 -72 -27 -71 -28 1 0 36 -2 79 -5 97 -3 25 1 35 16 43 11 6 18 15
15 19 -6 12 30 21 82 21 37 0 44 4 58 30 9 17 14 34 11 39 -5 7 13 8 47 2 4 0
29 -23 56 -51 42 -43 54 -50 87 -50 48 1 69 16 89 64 18 42 13 70 -18 104 -16
17 -31 22 -70 22 -59 0 -147 43 -147 71 0 19 16 34 23 22 2 -5 2 -2 0 5 -1 8
-3 20 -3 27 0 8 -28 37 -62 66 -46 38 -67 50 -85 46 -15 -3 -27 1 -30 9 -7 20
-19 17 -20 -3 -7 -127 -7 -127 -38 -93 -12 13 -16 28 -12 48 3 17 1 35 -6 42
-9 10 -9 11 1 6 6 -4 12 -5 12 -2 0 2 -14 11 -30 20 -17 8 -28 10 -24 5 7 -11
13 -99 7 -99 -19 0 -63 34 -63 49 0 11 -6 22 -12 24 -10 4 -10 6 0 6 6 1 12 6
12 12 0 8 -4 8 -14 -1 -11 -8 -12 -18 -6 -35 6 -16 5 -25 -3 -27 -16 -6 -99
26 -91 35 4 3 24 -3 45 -14 22 -11 39 -15 39 -11 0 5 -18 17 -41 27 -30 14
-47 31 -64 64 -34 69 -56 84 -123 87 -31 2 -65 0 -74 -2z m82 -31 c-14 -3 -29
-8 -33 -13 -11 -10 -47 -1 -47 11 0 5 24 8 53 8 28 -1 41 -4 27 -6z m-70 -128
c27 -15 20 -19 -17 -9 -13 4 -23 10 -23 15 0 12 11 11 40 -6z m-46 -11 c10
-25 -1 -29 -14 -5 -6 12 -7 21 -1 21 5 0 12 -7 15 -16z m626 -15 c0 -6 -5 -20
-12 -32 -6 -12 -16 -44 -22 -72 -8 -35 -17 -51 -30 -53 -11 -3 -16 0 -12 7 4
7 1 9 -8 5 -13 -5 -15 0 -10 27 9 48 33 121 46 136 11 14 48 0 48 -18z m64
-54 c9 -13 16 -28 16 -32 0 -4 -4 -2 -9 6 -7 11 -13 6 -26 -20 -10 -19 -29
-44 -42 -56 l-26 -22 34 1 c19 0 60 -11 93 -26 32 -14 70 -26 85 -27 25 0 26
0 3 -9 -37 -16 -49 -54 -28 -97 l18 -37 -50 46 c-28 26 -62 50 -77 54 -14 3
-24 11 -22 18 4 12 32 13 60 1 12 -5 17 -3 17 8 0 9 -15 21 -36 27 -19 7 -38
18 -40 24 -3 7 -17 11 -33 8 -39 -5 -45 9 -22 60 10 24 24 55 30 71 13 34 34
35 55 2z m-200 -24 c8 -13 -4 -41 -18 -41 -22 0 -39 18 -33 34 7 17 42 22 51
7z m319 -138 c-7 -2 -19 -2 -25 0 -7 3 -2 5 12 5 14 0 19 -2 13 -5z m61 -80
c4 -9 1 -20 -6 -25 -24 -14 -38 -8 -38 17 0 29 34 36 44 8z m-490 -19 c12 -11
16 -34 15 -87 l-2 -72 -7 73 c-5 40 -13 79 -20 87 -17 20 -6 19 14 -1z m-156
-282 c17 -11 4 -42 -18 -42 -20 0 -34 37 -16 44 17 7 20 6 34 -2z m500 0 c17
-12 4 -42 -18 -42 -22 0 -35 30 -18 42 7 4 15 8 18 8 3 0 11 -4 18 -8z"/>
<path d="M281 923 l1 -153 33 0 32 0 -4 73 -4 72 18 -35 c22 -43 33 -43 56 1
l17 34 -3 -68 c-3 -65 -2 -68 17 -63 12 3 28 6 36 6 13 0 15 22 13 142 l-2
143 -34 3 c-34 3 -35 2 -41 -40 -4 -24 -13 -56 -20 -73 l-13 -30 -16 57 c-10
31 -17 63 -17 70 0 10 -11 15 -35 15 l-36 0 2 -154z"/>
<path d="M555 940 l0 -140 31 0 c17 0 52 3 78 6 38 6 46 10 46 28 0 19 -5 21
-45 18 -44 -4 -45 -4 -45 27 0 27 4 32 30 38 17 3 30 12 30 19 0 8 0 17 0 21
0 4 -14 6 -30 5 -28 -3 -30 -1 -30 32 0 36 0 36 45 36 41 0 45 2 45 25 0 25
-2 25 -77 25 l-78 0 0 -140z"/>
<path d="M776 1064 c-12 -12 -16 -38 -16 -114 0 -54 3 -105 6 -114 5 -12 20
-16 61 -16 75 0 93 12 93 59 l0 39 -34 -10 c-26 -8 -32 -15 -29 -29 4 -14 0
-19 -16 -19 -21 0 -22 4 -19 87 3 74 6 88 21 91 12 3 17 -3 17 -22 0 -27 8
-30 47 -20 19 5 22 11 17 33 -4 14 -13 32 -22 39 -23 18 -107 15 -126 -4z"/>
<path d="M990 1078 c0 -2 -1 -58 -3 -126 l-2 -122 35 0 35 0 -4 51 c-3 48 -2
51 20 47 22 -3 24 -8 22 -50 -2 -48 -2 -48 30 -48 l32 0 0 125 0 125 -33 0
c-32 0 -33 -1 -27 -34 9 -45 -2 -76 -26 -76 -16 0 -19 7 -19 55 0 54 0 55 -30
55 -16 0 -30 -1 -30 -2z"/>
<path d="M1232 1068 c-6 -7 -12 -64 -14 -126 l-3 -112 36 0 c34 0 35 1 31 30
-4 25 -1 30 17 30 17 0 21 -6 21 -35 0 -33 2 -35 33 -35 l32 0 -3 117 c-4 137
-8 143 -88 143 -29 0 -56 -5 -62 -12z m83 -83 c0 -39 -4 -50 -17 -53 -15 -3
-18 5 -18 53 0 48 3 56 18 53 13 -3 17 -14 17 -53z"/>
<path d="M1445 950 c0 -109 2 -130 15 -130 8 0 24 -3 36 -6 19 -5 20 -2 16 55
-2 34 -1 61 2 61 11 0 47 -93 42 -107 -4 -8 3 -13 18 -13 14 0 30 -2 38 -5 10
-4 13 22 13 135 l0 140 -36 0 -36 0 5 -55 c2 -30 0 -55 -5 -55 -10 0 -38 66
-38 90 0 10 -12 16 -35 18 l-35 3 0 -131z"/>
<path d="M1685 941 c0 -132 1 -140 20 -145 11 -3 25 -6 30 -6 6 0 10 55 10
145 l0 145 -30 0 -30 0 0 -139z"/>
<path d="M1817 1062 c-14 -15 -17 -41 -17 -134 0 -134 6 -145 86 -154 59 -7
70 2 76 64 4 43 0 46 -40 36 -16 -5 -22 -13 -20 -28 2 -15 -2 -21 -17 -21 -19
0 -20 7 -20 100 0 93 1 100 20 100 16 0 20 -6 18 -29 -2 -24 1 -27 20 -22 12
3 28 6 35 6 18 0 5 71 -16 88 -25 19 -106 15 -125 -6z"/>
<path d="M990 754 c-30 -2 -134 -8 -230 -14 -204 -12 -260 -19 -260 -31 0 -21
62 -47 505 -206 116 -41 137 -38 433 70 145 53 278 107 295 119 l32 23 -48 7
c-123 17 -613 39 -727 32z m64 -117 c-9 -25 -34 -21 -34 6 0 13 3 27 7 31 11
11 34 -19 27 -37z m-180 16 c8 -19 -7 -38 -22 -29 -8 5 -9 22 -3 44 3 9 20 -1
25 -15z m56 -8 c0 -16 -6 -25 -15 -25 -9 0 -15 9 -15 25 0 16 6 25 15 25 9 0
15 -9 15 -25z m59 18 c0 -5 -4 -17 -8 -28 -7 -17 -8 -17 -13 8 -4 19 -1 27 8
27 8 0 14 -3 13 -7z m141 -18 c0 -16 -6 -25 -15 -25 -9 0 -15 9 -15 25 0 16 6
25 15 25 9 0 15 -9 15 -25z m47 5 c-3 -10 0 -21 7 -24 6 -2 3 -5 -6 -5 -13 -1
-18 7 -18 24 0 14 5 25 11 25 6 0 9 -9 6 -20z m73 6 c0 -7 -7 -19 -15 -26 -13
-11 -15 -8 -15 14 0 16 5 26 15 26 8 0 15 -6 15 -14z m60 -11 c0 -18 -5 -25
-19 -25 -14 0 -17 6 -13 25 2 14 11 25 18 25 8 0 14 -10 14 -25z m40 -1 c0
-14 -4 -23 -10 -19 -5 3 -10 15 -10 26 0 10 5 19 10 19 6 0 10 -12 10 -26z
m56 -2 c1 -15 -5 -22 -16 -22 -12 0 -17 6 -15 18 2 9 4 21 4 25 2 18 26 -1 27
-21z m-260 -109 c-3 -8 -6 -17 -6 -19 0 -2 -6 -4 -14 -4 -18 0 -30 31 -15 41
18 11 41 -1 35 -18z"/>
<path d="M440 706 c0 -31 62 -75 152 -109 460 -172 460 -172 533 -172 59 0 89
7 195 47 69 26 187 70 264 97 145 52 197 81 217 118 20 37 2 38 -38 2 -21 -19
-58 -42 -83 -51 -25 -10 -144 -54 -265 -100 -294 -111 -282 -111 -580 0 -121
46 -240 90 -265 99 -25 9 -60 31 -78 50 -37 36 -52 41 -52 19z"/>
</g>
</svg>
