<?xml version="1.0" standalone="no"?>
<!DOCTYPE svg PUBLIC "-//W3C//DTD SVG 20010904//EN"
 "http://www.w3.org/TR/2001/REC-SVG-20010904/DTD/svg10.dtd">
<svg version="1.0" xmlns="http://www.w3.org/2000/svg"
 width="280.000000pt" height="160.000000pt" viewBox="0 0 280.000000 160.000000"
 preserveAspectRatio="xMidYMid meet">

<g transform="translate(0.000000,160.000000) scale(0.100000,-0.100000)"
fill="#000000" stroke="none">
<path d="M2265 1333 c-65 -14 -105 -37 -148 -87 -26 -30 -55 -57 -64 -60 -26
-8 -1033 -166 -1058 -166 -12 0 -32 12 -46 26 -55 59 -151 85 -238 64 -112
-27 -193 -131 -193 -248 0 -97 41 -168 131 -227 36 -24 52 -28 114 -29 115 0
201 55 248 159 10 22 19 50 19 61 0 17 8 23 38 28 20 3 219 36 442 72 223 37
428 70 455 75 94 15 149 10 211 -17 112 -49 165 -43 257 28 37 30 74 85 63 96
-3 3 -42 -9 -87 -26 -44 -18 -86 -32 -94 -32 -21 0 -63 57 -75 102 -18 66 -10
79 85 126 47 23 83 47 80 52 -6 10 -100 12 -140 3z m-351 -239 c9 -8 16 -19
16 -24 0 -10 -28 -40 -38 -40 -4 0 -146 -20 -317 -45 -347 -50 -391 -54 -280
-26 32 8 41 15 41 32 0 20 -4 21 -65 15 -36 -4 -71 -12 -78 -18 -9 -7 -13 -7
-13 1 0 14 1 15 360 70 368 57 354 56 374 35z m-1077 -76 c26 -11 27 -12 6
-15 -21 -4 -20 -7 19 -44 23 -21 43 -39 46 -39 2 0 2 11 0 25 -7 35 0 31 18
-10 18 -45 18 -66 -1 -59 -11 5 -15 -1 -15 -23 0 -16 -7 -39 -16 -51 -14 -20
-14 -22 5 -22 10 0 22 6 24 13 4 8 6 8 6 0 1 -16 -46 -71 -73 -85 -21 -11 -21
-11 -2 11 15 16 17 24 8 33 -9 9 -12 9 -12 0 0 -12 -68 -34 -82 -26 -4 3 -8 0
-8 -6 0 -6 10 -15 23 -20 19 -7 16 -9 -18 -9 -50 -1 -113 34 -136 74 -10 17
-21 50 -24 75 -4 35 -3 40 4 23 15 -33 31 -28 31 8 0 17 5 39 10 50 14 25 -14
27 -29 2 -6 -10 -11 -12 -11 -6 0 17 69 93 84 92 7 0 6 -2 -1 -6 -23 -9 -14
-40 18 -67 37 -31 45 -32 59 -7 15 30 12 33 -15 15 -24 -16 -27 -15 -45 1 -25
23 -12 42 36 51 35 6 44 18 22 27 -7 3 -1 6 14 6 15 1 39 -4 55 -11z m388 -86
c-6 -7 -45 9 -45 18 0 4 11 3 24 -3 14 -7 23 -13 21 -15z"/>
<path d="M800 926 c0 -23 27 -39 46 -28 16 9 15 10 -4 16 -12 4 -22 12 -22 17
0 5 -4 9 -10 9 -5 0 -10 -6 -10 -14z"/>
<path d="M684 912 c17 -20 17 -23 3 -46 -15 -23 -15 -24 4 -19 10 3 22 9 25
14 9 16 -6 49 -29 60 -22 12 -22 12 -3 -9z"/>
<path d="M890 900 c-8 -5 -10 -10 -5 -10 6 0 17 5 25 10 8 5 11 10 5 10 -5 0
-17 -5 -25 -10z"/>
<path d="M834 855 c-6 -14 3 -52 10 -44 2 2 6 16 10 32 7 29 -10 39 -20 12z"/>
<path d="M715 800 c14 -15 21 -17 26 -8 11 17 2 28 -23 28 -21 0 -21 -1 -3
-20z"/>
<path d="M776 794 c-9 -23 -8 -24 18 -14 13 5 28 6 32 2 5 -4 2 1 -5 11 -17
21 -37 22 -45 1z"/>
<path d="M637 794 c-11 -11 17 -56 44 -69 23 -13 29 -12 39 0 10 12 9 15 -5
15 -9 0 -29 13 -45 30 -15 16 -30 27 -33 24z"/>
<path d="M850 786 c0 -2 8 -10 18 -17 15 -13 16 -12 3 4 -13 16 -21 21 -21 13z"/>
<path d="M2738 547 c19 -9 23 -17 20 -43 -2 -18 0 -30 4 -28 4 3 8 18 8 34 0
27 -23 51 -47 49 -4 0 3 -5 15 -12z"/>
<path d="M2692 538 c-29 -29 -2 -79 40 -77 7 0 3 4 -10 9 -29 12 -38 37 -23
61 13 22 10 24 -7 7z"/>
<path d="M2716 533 c-12 -12 -6 -40 9 -40 8 0 15 8 15 18 0 20 -14 32 -24 22z"/>
<path d="M926 413 c-3 -3 -6 -40 -6 -80 0 -55 3 -74 13 -70 7 2 12 22 13 48
l1 44 59 0 59 0 3 -47 c4 -63 22 -62 22 2 0 59 -14 70 -89 70 -38 0 -51 4 -51
14 0 17 -14 28 -24 19z"/>
<path d="M1804 411 c-12 -13 0 -21 31 -21 l35 0 0 -65 c0 -51 3 -65 15 -65 12
0 15 14 15 65 l0 65 36 0 c21 0 34 4 32 11 -3 10 -154 19 -164 10z"/>
<path d="M2156 413 c-4 -4 11 -25 33 -47 24 -25 41 -53 43 -70 5 -44 28 -46
28 -3 0 29 7 41 41 70 23 19 40 40 37 47 -3 9 -18 1 -46 -24 l-42 -38 -44 35
c-24 20 -46 33 -50 30z"/>
<path d="M260 335 c0 -86 18 -102 22 -20 l3 56 43 -56 c24 -30 51 -55 60 -55
9 1 35 24 57 53 l40 52 3 -53 c2 -37 7 -52 18 -52 11 0 14 16 14 75 0 94 -11
96 -77 15 -26 -33 -51 -60 -55 -60 -3 0 -28 27 -55 59 -26 33 -54 60 -60 60
-9 1 -13 -20 -13 -74z"/>
<path d="M1510 335 c0 -43 4 -75 10 -75 6 0 10 32 10 75 0 43 -4 75 -10 75 -6
0 -10 -32 -10 -75z"/>
<path d="M558 369 c-21 -12 -25 -78 -6 -97 14 -14 78 -16 78 -3 0 5 -12 11
-27 13 -14 2 -28 9 -31 16 -3 9 15 12 67 12 67 0 71 1 71 23 0 13 -5 28 -12
35 -15 15 -116 15 -140 1z m130 -26 c3 -10 -14 -13 -62 -13 -61 0 -77 6 -59
24 12 12 116 2 121 -11z"/>
<path d="M736 364 c-19 -18 -21 -75 -4 -92 15 -15 168 -17 168 -2 0 6 -32 10
-76 10 l-75 0 3 38 3 37 73 3 c95 4 93 22 -2 22 -54 0 -79 -4 -90 -16z"/>
<path d="M1210 370 c0 -5 11 -10 25 -10 14 0 25 -4 25 -10 0 -5 -30 -10 -66
-12 -74 -3 -99 -21 -78 -55 9 -15 26 -18 90 -18 l79 0 3 45 c3 33 -1 47 -14
57 -21 15 -64 17 -64 3z m58 -67 c-3 -15 -16 -19 -66 -21 -57 -3 -62 -1 -62
18 0 18 6 20 66 20 57 0 65 -2 62 -17z"/>
<path d="M1325 364 c-11 -11 -15 -30 -13 -57 4 -59 26 -59 30 0 l3 48 55 0 55
0 3 -47 c4 -66 22 -61 22 6 0 62 -5 66 -85 66 -36 0 -59 -5 -70 -16z"/>
<path d="M1568 369 c-21 -12 -25 -78 -6 -97 15 -15 168 -17 168 -2 0 6 -32 10
-76 10 l-75 0 3 38 3 37 73 3 c39 2 72 7 72 12 0 13 -140 12 -162 -1z"/>
<path d="M1936 364 c-19 -18 -21 -75 -4 -92 16 -16 130 -16 146 0 20 20 15 86
-7 98 -31 16 -117 12 -135 -6z m124 -44 l0 -40 -55 0 -55 0 0 33 c0 44 4 47
62 47 l48 0 0 -40z"/>
<path d="M2338 369 c-22 -12 -25 -81 -4 -98 9 -7 40 -11 78 -9 l63 3 3 49 c2
32 -1 52 -10 57 -18 12 -109 10 -130 -2z m117 -49 l0 -35 -55 0 c-53 0 -55 1
-58 29 -4 37 11 47 68 44 44 -3 45 -4 45 -38z"/>
<path d="M2510 332 c0 -26 5 -53 12 -60 7 -7 39 -12 73 -12 34 0 66 5 73 12
14 14 16 108 3 108 -6 0 -11 -21 -13 -47 l-3 -48 -60 0 -60 0 -3 48 c-4 62
-22 61 -22 -1z"/>
</g>
</svg>
